<?xml version="1.0" encoding="UTF-8" standalone="no"?>
<svg
   xmlns:dc="http://purl.org/dc/elements/1.1/"
   xmlns:cc="http://creativecommons.org/ns#"
   xmlns:rdf="http://www.w3.org/1999/02/22-rdf-syntax-ns#"
   xmlns:svg="http://www.w3.org/2000/svg"
   xmlns="http://www.w3.org/2000/svg"
   xmlns:sodipodi="http://sodipodi.sourceforge.net/DTD/sodipodi-0.dtd"
   xmlns:inkscape="http://www.inkscape.org/namespaces/inkscape"
   width="400"
   height="400"
   viewBox="0 0 105.83333 105.83334"
   version="1.1"
   id="svg8"
   inkscape:version="1.0.2 (e86c8708, 2021-01-15)"
   sodipodi:docname="burger.svg">
  <defs
     id="defs2" />
  <sodipodi:namedview
     id="base"
     pagecolor="#ffffff"
     bordercolor="#666666"
     borderopacity="1.0"
     inkscape:pageopacity="0.0"
     inkscape:pageshadow="2"
     inkscape:zoom="0.35"
     inkscape:cx="174.28571"
     inkscape:cy="357.14286"
     inkscape:document-units="mm"
     inkscape:current-layer="layer1"
     inkscape:document-rotation="0"
     showgrid="false"
     units="px"
     inkscape:window-width="1248"
     inkscape:window-height="943"
     inkscape:window-x="0"
     inkscape:window-y="25"
     inkscape:window-maximized="0" />
  <metadata
     id="metadata5">
    <rdf:RDF>
      <cc:Work
         rdf:about="">
        <dc:format>image/svg+xml</dc:format>
        <dc:type
           rdf:resource="http://purl.org/dc/dcmitype/StillImage" />
        <dc:title></dc:title>
      </cc:Work>
    </rdf:RDF>
  </metadata>
  <g
     inkscape:label="Ebene 1"
     inkscape:groupmode="layer"
     id="layer1">
    <path
       id="rect833"
       style="fill:#000000;stroke-width:0;fill-opacity:1"
       d="M 56.378906 50 C 41.764766 50 30 61.764766 30 76.378906 C 30 90.993043 41.764766 102.75781 56.378906 102.75781 L 343.62109 102.75781 C 358.23523 102.75781 370 90.993043 370 76.378906 C 370 61.764766 358.23523 50 343.62109 50 L 56.378906 50 z M 56.378906 175 C 41.764758 175 30 186.76476 30 201.37891 C 30 215.99305 41.764758 227.75781 56.378906 227.75781 L 343.62109 227.75781 C 358.23524 227.75781 370 215.99305 370 201.37891 C 370 186.76476 358.23524 175 343.62109 175 L 56.378906 175 z M 56.378906 300 C 41.764766 300 30 311.76477 30 326.37891 C 30 340.99304 41.764766 352.75781 56.378906 352.75781 L 343.62109 352.75781 C 358.23523 352.75781 370 340.99304 370 326.37891 C 370 311.76477 358.23523 300 343.62109 300 L 56.378906 300 z "
       transform="scale(0.26458333)" />
  </g>
</svg>
