<?xml version="1.0" encoding="UTF-8" standalone="no"?>
<svg
   xmlns:dc="http://purl.org/dc/elements/1.1/"
   xmlns:cc="http://creativecommons.org/ns#"
   xmlns:rdf="http://www.w3.org/1999/02/22-rdf-syntax-ns#"
   xmlns:svg="http://www.w3.org/2000/svg"
   xmlns="http://www.w3.org/2000/svg"
   xmlns:xlink="http://www.w3.org/1999/xlink"
   xmlns:sodipodi="http://sodipodi.sourceforge.net/DTD/sodipodi-0.dtd"
   xmlns:inkscape="http://www.inkscape.org/namespaces/inkscape"
   width="2000mm"
   height="210mm"
   viewBox="0 0 2000 210"
   version="1.1"
   id="svg8"
   inkscape:version="1.0.2 (e86c8708, 2021-01-15)"
   sodipodi:docname="logo_orderbook.svg">
  <defs
     id="defs2">
    <pattern
       patternUnits="userSpaceOnUse"
       width="256"
       height="256"
       id="sand_bitmap"
       inkscape:stockid="Sand (bitmap)">
      
    </pattern>
    <filter
       inkscape:collect="always"
       style="color-interpolation-filters:sRGB"
       id="filter6989"
       x="-6.6323427e-05"
       width="1.0001326"
       y="-0.00062931151"
       height="1.0012586">
      <feGaussianBlur
         inkscape:collect="always"
         stdDeviation="0.19716123"
         id="feGaussianBlur6991" />
    </filter>
    <filter
       inkscape:collect="always"
       style="color-interpolation-filters:sRGB"
       id="filter6999"
       x="-0.00026881757"
       width="1.0005376"
       y="-0.0022387808"
       height="1.0044776">
      <feGaussianBlur
         inkscape:collect="always"
         stdDeviation="0.21143393"
         id="feGaussianBlur7001" />
    </filter>
  </defs>
  <sodipodi:namedview
     id="base"
     pagecolor="#ffffff"
     bordercolor="#666666"
     borderopacity="1.0"
     inkscape:pageopacity="0.0"
     inkscape:pageshadow="2"
     inkscape:zoom="0.13"
     inkscape:cx="2185.6149"
     inkscape:cy="103.29597"
     inkscape:document-units="mm"
     inkscape:current-layer="layer1"
     inkscape:document-rotation="0"
     showgrid="false"
     inkscape:window-width="1322"
     inkscape:window-height="943"
     inkscape:window-x="353"
     inkscape:window-y="25"
     inkscape:window-maximized="0"
     inkscape:snap-global="false" />
  <metadata
     id="metadata5">
    <rdf:RDF>
      <cc:Work
         rdf:about="">
        <dc:format>image/svg+xml</dc:format>
        <dc:type
           rdf:resource="http://purl.org/dc/dcmitype/StillImage" />
        <dc:title></dc:title>
      </cc:Work>
    </rdf:RDF>
  </metadata>
  <g
     inkscape:label="Ebene 1"
     inkscape:groupmode="layer"
     id="layer1"
     style="">
     
     <style type="text/css">
    <![CDATA[
      .testrect2
     {
     fill:#ff0000;
     }
     
      .dark-mode2
     {
     fill:#ff00ff;
     }
     
     
    ]]>
  </style> 
  
      
    <path
       id="maincontent"
       class="testrect2"  style="fill:#ffffff;fill-opacity:1;stroke:none;stroke-width:0;stroke-miterlimit:4;stroke-dasharray:none;"
       d="M 2257.6016 27.078125 C 2050.0928 27.256929 1881.9686 195.52631 1881.9688 403.03516 C 1881.9688 502.74479 1921.5784 598.36979 1992.084 668.875 C 2062.5895 739.38021 2158.2161 778.9903 2257.9258 778.99023 C 2357.6355 778.9903 2453.2621 739.38021 2523.7676 668.875 C 2594.2732 598.36979 2633.8824 502.74479 2633.8828 403.03516 C 2633.8829 303.32514 2594.2733 207.699 2523.7676 137.19336 C 2453.262 66.687724 2357.6358 27.078059 2257.9258 27.078125 L 2257.6016 27.078125 z M 2256.4805 41.363281 L 2256.7344 41.363281 C 2455.8222 41.363364 2617.2148 202.75593 2617.2148 401.84375 C 2617.2148 600.93157 2455.8222 762.32414 2256.7344 762.32422 C 2057.6465 762.32419 1896.2539 600.93161 1896.2539 401.84375 C 1896.2539 202.855 2057.4918 41.503464 2256.4805 41.363281 z M 2256.7754 63.400391 C 2068.4112 63.562684 1915.7967 216.30766 1915.7969 404.67188 C 1915.7973 495.18237 1951.7531 581.98581 2015.7539 645.98633 C 2079.7546 709.98677 2166.5578 745.9434 2257.0684 745.94336 C 2347.5789 745.9434 2434.384 709.98677 2498.3848 645.98633 C 2562.3856 581.98581 2598.3395 495.18237 2598.3398 404.67188 C 2598.3399 314.16106 2562.3857 227.35827 2498.3848 163.35742 C 2434.3839 99.356581 2347.5792 63.40033 2257.0684 63.400391 L 2256.7754 63.400391 z M 2255.7578 76.369141 L 2255.9883 76.369141 C 2436.7084 76.369216 2583.2109 222.87171 2583.2109 403.5918 C 2583.2109 584.31191 2436.7084 730.81438 2255.9883 730.81445 C 2075.2681 730.81442 1928.7637 584.31195 1928.7637 403.5918 C 1928.7637 222.96164 2075.1277 76.49639 2255.7578 76.369141 z M 934.26953 141.27539 C 849.80107 141.27539 785.99599 172.1561 742.85352 233.91797 C 709.2478 282.0559 692.44531 339.95746 692.44531 407.62305 C 692.44531 482.55473 712.08482 544.54365 751.36719 593.58984 C 795.41793 644.45256 855.93098 669.88281 932.90625 669.88281 C 1015.3311 669.88281 1078.7959 640.82024 1123.3008 582.69141 C 1161.2207 533.19108 1180.1816 471.08742 1180.1816 396.38281 C 1180.1816 327.35483 1163.6066 270.70164 1130.4551 226.42383 C 1087.9938 169.6574 1022.5981 141.27539 934.26953 141.27539 z M 3103.2012 141.27539 C 3018.7327 141.27539 2954.9277 172.1561 2911.7852 233.91797 C 2878.1794 282.0559 2861.377 339.95746 2861.377 407.62305 C 2861.377 482.55473 2881.0165 544.54365 2920.2988 593.58984 C 2964.3496 644.45256 3024.8626 669.88281 3101.8379 669.88281 C 3184.2628 669.88281 3247.7276 640.82024 3292.2324 582.69141 C 3330.1524 533.19108 3349.1133 471.08742 3349.1133 396.38281 C 3349.1133 327.35483 3332.5383 270.70164 3299.3867 226.42383 C 3256.9254 169.6574 3191.5297 141.27539 3103.2012 141.27539 z M 6089.5703 141.27539 C 6005.1019 141.27539 5941.2949 172.1561 5898.1523 233.91797 C 5864.5468 282.0559 5847.7441 339.95746 5847.7441 407.62305 C 5847.7441 482.55473 5867.3858 544.54365 5906.668 593.58984 C 5950.7189 644.45256 6011.2319 669.88281 6088.207 669.88281 C 6170.632 669.88281 6234.0966 640.82024 6278.6016 582.69141 C 6316.5216 533.19108 6335.4824 471.08742 6335.4824 396.38281 C 6335.4824 327.35483 6318.9057 270.70164 6285.7539 226.42383 C 6243.2927 169.6574 6177.8989 141.27539 6089.5703 141.27539 z M 6631.8027 141.27539 C 6547.3343 141.27539 6483.5273 172.1561 6440.3848 233.91797 C 6406.7792 282.0559 6389.9766 339.95746 6389.9766 407.62305 C 6389.9766 482.55473 6409.6182 544.54365 6448.9004 593.58984 C 6492.9513 644.45256 6553.4643 669.88281 6630.4395 669.88281 C 6712.8644 669.88281 6776.329 640.82024 6820.834 582.69141 C 6858.754 533.19108 6877.7148 471.08742 6877.7148 396.38281 C 6877.7148 327.35483 6861.1381 270.70164 6827.9863 226.42383 C 6785.5251 169.6574 6720.1313 141.27539 6631.8027 141.27539 z M 428.48047 142.29688 C 371.48699 142.29687 327.43613 156.71539 296.32812 185.55273 C 265.22016 214.39008 249.66602 251.28904 249.66602 296.24805 C 249.66602 337.80107 265.56041 369.02207 297.34961 389.91211 C 315.74193 401.9466 347.07767 412.95834 391.35547 422.94922 L 459.13477 438.27734 C 495.9194 446.67878 522.94027 456.55491 540.19727 467.9082 C 557.22719 479.48855 565.74219 498.90252 565.74219 526.15039 C 565.74219 562.4809 545.53292 587.68559 505.11523 601.76367 C 484.22521 609.02976 461.0642 612.66406 435.63281 612.66406 C 378.8664 612.66406 339.24318 596.08712 316.76367 562.93555 C 304.95625 545.2244 298.25938 522.17814 296.66992 493.79492 L 232.97656 493.79492 C 232.29537 547.83657 249.55286 590.63709 284.74805 622.19922 C 319.94323 653.98842 368.64927 669.88281 430.86523 669.88281 C 484.22569 669.88281 531.00079 657.96298 571.19141 634.12109 C 611.60912 610.27918 631.81836 570.65597 631.81836 515.25195 C 631.81836 470.74706 615.92397 436.79988 584.13477 413.41211 C 565.74243 400.01525 539.6296 389.45852 505.79688 381.73828 L 435.63281 365.72852 C 388.40316 354.82936 358.09024 345.74657 344.69336 338.48047 C 324.25745 327.12718 314.03906 309.18911 314.03906 284.66602 C 314.03906 262.41358 322.78161 242.88685 340.26562 226.08398 C 357.74968 209.28112 386.47394 200.87891 426.4375 200.87891 C 475.93782 200.87891 511.01866 213.93627 531.68164 240.04883 C 542.80786 254.35397 550.07448 274.90351 553.48047 301.69727 L 617.17188 301.69727 C 617.17188 246.06617 598.78075 205.64765 561.99609 180.44336 C 525.43851 155.012 480.93265 142.29688 428.48047 142.29688 z M 2254.8301 148.74023 L 2254.832 148.74219 C 2235.8814 148.82776 2215.9329 152.36032 2195.9199 159.98047 C 2153.2218 176.2383 2128.3971 214.98787 2129.0723 274.65234 C 2128.969 274.64714 2128.8651 274.64545 2128.7617 274.64062 C 2129.1483 297.53672 2133.7098 323.99502 2142.0547 350.69531 C 2171.4338 360.68266 2207.1113 406.82031 2207.1113 406.82031 C 2207.1113 406.82031 2167.8595 458.88303 2130.3184 464.30469 C 2129.7967 464.28579 2125.7058 464.24275 2125.1934 464.21289 C 2124.5064 464.24691 2123.8262 464.29184 2123.1289 464.30469 C 2119.0499 464.3048 2115.0873 463.63538 2111.2852 462.43164 C 2081.2372 456.04386 2072.1983 434.87431 2072.1992 409.53711 C 2072.1991 409.47437 2072.1991 409.4104 2072.1992 409.34766 C 2072.2025 408.50611 2072.2283 407.66387 2072.2676 406.82031 C 2072.2252 405.97691 2072.2015 405.13444 2072.1992 404.29297 C 2072.1991 404.23023 2072.1991 404.16821 2072.1992 404.10547 C 2072.1983 378.76831 2081.2372 357.5987 2111.2852 351.21094 C 2115.0873 350.00724 2119.0499 349.33779 2123.1289 349.33789 C 2123.8262 349.35301 2124.5064 349.39579 2125.1934 349.42969 C 2125.7058 349.39945 2126.201 349.35913 2126.7227 349.33789 C 2127.632 349.12029 2128.5611 348.97443 2129.5039 348.88281 C 2125.8227 339.94021 2122.7736 329.71203 2120.5215 318.4707 C 2117.7058 304.41543 2116.307 289.54012 2116.25 274.70898 C 2074.3923 276.26478 2051.0087 288.79782 2027.0352 321.71875 C 2001.5408 356.72812 1992.8777 410.08226 2013.0312 463.89062 C 2029.1853 507.01922 2067.7249 532.06272 2127.084 531.28711 C 2127.0925 531.27002 2127.2734 530.9082 2127.2734 530.9082 C 2151.8411 530.41017 2181.7102 521.93241 2210.0703 506.50391 C 2226.5848 481.39148 2257.5078 457.06836 2257.5078 457.06836 C 2257.5078 457.06836 2309.1442 496.6471 2314.5215 534.49805 C 2314.5026 535.02404 2314.4604 539.14736 2314.4316 539.66406 C 2314.4657 540.35674 2314.5094 541.04303 2314.5215 541.74609 C 2314.5216 545.85875 2313.858 549.85396 2312.6641 553.6875 C 2306.3286 583.98347 2285.3331 593.09653 2260.2031 593.0957 C 2260.1408 593.09578 2260.0776 593.09578 2260.0156 593.0957 C 2259.181 593.0923 2258.3444 593.06545 2257.5078 593.02539 C 2256.6713 593.06583 2255.8366 593.09306 2255.002 593.0957 C 2254.9396 593.09578 2254.8764 593.09578 2254.8145 593.0957 C 2229.6845 593.09653 2208.689 583.98347 2202.3535 553.6875 C 2201.1596 549.85396 2200.496 545.85875 2200.4961 541.74609 C 2200.5074 541.04303 2200.5531 540.35674 2200.5859 539.66406 C 2200.5557 539.14736 2200.518 538.64705 2200.4961 538.12109 C 2199.5225 533.98312 2199.8618 529.48081 2201.1641 524.79102 C 2193.5584 528.71133 2185.1228 532.3216 2175.957 535.51562 C 2161.2019 540.65724 2145.3688 544.44335 2129.3672 546.8125 C 2132.2771 599.01345 2156.459 633.25998 2195.9199 648.28516 C 2249.2881 668.60567 2302.2069 659.87073 2336.9297 634.16602 C 2371.6525 608.46126 2383.5089 583.4356 2383.7207 535.95898 C 2383.7245 534.39207 2383.6861 532.83363 2383.6094 531.28516 C 2383.6515 531.28564 2383.6923 531.28471 2383.7344 531.28516 C 2382.1071 514.02254 2377.8996 495.02905 2371.3066 475.76562 C 2368.0478 468.50011 2364.5466 461.78751 2360.8535 455.73438 C 2331.9659 439.45333 2307.3457 406.82422 2307.3457 406.82422 C 2307.3457 406.82422 2352.8003 348.00688 2383.3438 348.7793 C 2384.8454 348.81978 2386.3135 348.99947 2387.7363 349.33984 C 2388.258 349.36025 2388.7532 349.40178 2389.2656 349.43164 C 2389.9527 349.39611 2390.6327 349.35247 2391.3301 349.33984 C 2395.4091 349.33974 2399.3717 350.00914 2403.1738 351.21289 C 2433.2218 357.60066 2442.2606 378.77026 2442.2598 404.10742 L 2442.2598 404.10938 C 2442.2599 404.17207 2442.2599 404.2318 2442.2598 404.29492 C 2442.2568 405.1364 2442.2329 405.97879 2442.1895 406.82227 C 2442.2299 407.66574 2442.256 408.512 2442.2598 409.35352 C 2442.2599 409.41626 2442.2599 409.47594 2442.2598 409.53906 C 2442.2606 434.87626 2433.2218 456.04581 2403.1738 462.43359 C 2399.3717 463.63734 2395.4091 464.30668 2391.3301 464.30664 C 2390.6327 464.2953 2389.9527 464.24886 2389.2656 464.21484 C 2388.7532 464.24508 2384.6623 464.2851 2384.1406 464.30664 C 2381.8592 463.97716 2379.572 463.47213 2377.2871 462.82031 C 2381.982 471.76066 2386.211 481.96747 2389.7969 493.23242 C 2393.6248 505.25891 2396.5252 517.96823 2398.5254 530.87305 C 2449.2715 527.47431 2482.6158 503.2028 2497.3418 463.88672 C 2517.496 410.0783 2508.8322 356.72616 2483.3379 321.7168 C 2457.8433 286.70751 2433.0235 274.75261 2385.9355 274.53906 C 2385.5798 274.53745 2385.226 274.54602 2384.8711 274.54883 C 2368.2192 276.25161 2350.321 279.84718 2332.2109 285.18945 C 2323.2441 289.04281 2315.1887 293.30386 2308.2285 297.86914 C 2305.933 302.5413 2303.176 307.13124 2300.1426 311.55469 C 2283.1161 336.38327 2257.5117 356.00781 2257.5117 356.00781 C 2257.5117 356.00781 2193.2971 305.55918 2200.498 274.95508 C 2200.5207 274.42914 2200.5592 273.9308 2200.5879 273.41406 C 2200.5539 272.72138 2200.5098 272.03514 2200.498 271.33203 C 2200.498 267.21938 2201.1616 263.22417 2202.3555 259.39062 C 2208.691 229.09478 2229.6865 219.98156 2254.8164 219.98242 C 2254.8788 219.98232 2254.9419 219.98232 2255.0039 219.98242 C 2255.8385 219.98536 2256.6751 220.01263 2257.5117 220.05273 C 2258.3483 220.01226 2259.183 219.98597 2260.0176 219.98242 C 2260.0799 219.98232 2260.1431 219.98232 2260.2051 219.98242 C 2285.335 219.98156 2306.3305 229.09478 2312.666 259.39062 C 2313.8599 263.22417 2314.5235 267.21938 2314.5234 271.33203 C 2314.5121 272.03514 2314.4669 272.72138 2314.4336 273.41406 C 2314.4638 273.9308 2314.5011 278.05414 2314.5234 278.58008 C 2314.3665 279.68512 2314.1586 280.79152 2313.9238 281.89844 C 2314.3425 281.77073 2314.7051 281.65912 2315.123 281.53125 C 2326.5063 274.99153 2340.5224 269.36302 2356.5625 265.10156 C 2365.2266 262.79991 2374.2135 260.97931 2383.3457 259.61914 C 2381.1001 220.1674 2368.4179 197.41284 2336.9258 174.09961 C 2315.2241 158.03412 2286.4145 148.59763 2254.8301 148.74023 z M 1225.1406 154.89844 L 1407.3613 655.23828 L 1479.2266 655.23828 L 1661.7871 154.89844 L 1585.834 154.89844 L 1443.8047 580.98828 L 1300.0723 154.89844 L 1225.1406 154.89844 z M 3437.668 154.89844 L 3437.668 655.23828 L 3505.4473 655.23828 L 3505.4473 440.66016 L 3659.7383 440.66016 C 3687.4403 440.66016 3707.7643 443.72665 3720.707 449.85742 C 3743.4136 460.98365 3755.5609 482.89435 3757.1504 515.5918 L 3761.2383 599.03906 C 3762.1466 618.5667 3763.2802 631.73686 3764.6426 638.54883 C 3766.005 645.3608 3767.8231 650.92403 3770.0938 655.23828 L 3853.1992 655.23828 L 3853.1992 643.99805 C 3842.7544 639.45674 3835.4876 629.23835 3831.4004 613.34375 C 3828.9026 604.03404 3827.3141 589.84304 3826.6328 570.76953 L 3824.248 503.67188 C 3823.1127 474.60746 3817.5494 453.6029 3807.5586 440.66016 C 3797.7948 427.71742 3783.1488 417.27349 3763.6211 409.32617 C 3785.8735 397.74583 3803.131 382.41922 3815.3926 363.3457 C 3827.8811 344.27218 3834.125 319.74806 3834.125 289.77539 C 3834.125 232.32777 3810.6237 192.93207 3763.6211 171.58789 C 3738.8709 160.46167 3707.4224 154.89844 3669.2754 154.89844 L 3437.668 154.89844 z M 3936.6465 154.89844 L 3936.6465 655.23828 L 4138.6211 655.23828 C 4224.4519 655.23828 4284.9649 617.31843 4320.1602 541.47852 C 4340.1418 498.56311 4350.1328 450.53768 4350.1328 397.4043 C 4350.1328 328.60338 4333.2154 272.1777 4299.3828 228.12695 C 4261.4628 179.30783 4208.1037 154.89844 4139.3027 154.89844 L 3936.6465 154.89844 z M 4444.1367 154.89844 L 4444.1367 655.23828 L 4814.0273 655.23828 L 4814.0273 595.63281 L 4510.2129 595.63281 L 4510.2129 426.01562 L 4786.4395 426.01562 L 4786.4395 368.11328 L 4510.2129 368.11328 L 4510.2129 216.20703 L 4808.918 216.20703 L 4808.918 154.89844 L 4444.1367 154.89844 z M 4911.7793 154.89844 L 4911.7793 655.23828 L 4979.5586 655.23828 L 4979.5586 440.66016 L 5133.8496 440.66016 C 5161.5518 440.66016 5181.8738 443.72665 5194.8164 449.85742 C 5217.5231 460.98365 5229.6703 482.89435 5231.2598 515.5918 L 5235.3477 599.03906 C 5236.256 618.5667 5237.3915 631.73686 5238.7539 638.54883 C 5240.1163 645.3608 5241.9324 650.92403 5244.2031 655.23828 L 5327.3086 655.23828 L 5327.3086 643.99805 C 5316.8637 639.45674 5309.5989 629.23835 5305.5117 613.34375 C 5303.014 604.03404 5301.4235 589.84304 5300.7422 570.76953 L 5298.3594 503.67188 C 5297.224 474.60746 5291.6607 453.6029 5281.6699 440.66016 C 5271.9061 427.71742 5257.2602 417.27349 5237.7324 409.32617 C 5259.985 397.74583 5277.2424 382.41922 5289.5039 363.3457 C 5301.9925 344.27218 5308.2363 319.74806 5308.2363 289.77539 C 5308.2363 232.32777 5284.7351 192.93207 5237.7324 171.58789 C 5212.9823 160.46167 5181.5337 154.89844 5143.3867 154.89844 L 4911.7793 154.89844 z M 5405.9883 154.89844 L 5405.9883 655.23828 L 5617.5 655.23828 C 5683.3492 655.23828 5731.3726 635.70959 5761.5723 596.6543 C 5781.7811 570.54174 5791.8867 541.36442 5791.8867 509.12109 C 5791.8867 470.74697 5780.6456 440.66158 5758.166 418.86328 C 5745.4504 406.60174 5726.2639 395.58805 5700.6055 385.82422 C 5718.0896 376.96866 5731.4871 367.20529 5740.7969 356.5332 C 5758.735 336.32435 5767.7031 310.43908 5767.7031 278.87695 C 5767.7031 251.85613 5760.4385 228.01454 5745.9062 207.35156 C 5721.1565 172.38344 5679.4892 154.89844 5620.9062 154.89844 L 5405.9883 154.89844 z M 6958.0957 154.89844 L 6958.0957 655.23828 L 7024.1719 655.23828 L 7024.1719 480.85156 L 7104.2129 404.2168 L 7279.2793 655.23828 L 7367.4941 655.23828 L 7153.5996 356.5332 L 7361.7051 154.89844 L 7268.041 154.89844 L 7024.1719 398.76758 L 7024.1719 154.89844 L 6958.0957 154.89844 z M 938.35742 201.56055 C 991.71785 201.56055 1033.725 219.49862 1064.3789 255.375 C 1095.2598 291.25138 1110.6992 338.59427 1110.6992 397.4043 C 1110.6992 453.03539 1097.3035 502.30918 1070.5098 545.22461 C 1043.9431 587.91296 1000.8003 609.25781 941.08203 609.25781 C 878.18482 609.25781 832.6581 590.29693 804.50195 552.37695 C 776.57288 514.2299 762.60742 467.4548 762.60742 412.05078 C 762.60742 342.79573 778.95685 290.45741 811.6543 255.03516 C 844.35177 219.38584 886.58644 201.56055 938.35742 201.56055 z M 3107.2891 201.56055 C 3160.6495 201.56055 3202.6567 219.49862 3233.3105 255.375 C 3264.1915 291.25138 3279.6309 338.59427 3279.6309 397.4043 C 3279.6309 453.03539 3266.2352 502.30918 3239.4414 545.22461 C 3212.8747 587.91296 3169.732 609.25781 3110.0137 609.25781 C 3047.1165 609.25781 3001.5897 590.29693 2973.4336 552.37695 C 2945.5045 514.2299 2931.5391 467.4548 2931.5391 412.05078 C 2931.5391 342.79573 2947.8885 290.45741 2980.5859 255.03516 C 3013.2834 219.38584 3055.5181 201.56055 3107.2891 201.56055 z M 6093.6562 201.56055 C 6147.0166 201.56055 6189.0238 219.49862 6219.6777 255.375 C 6250.5587 291.25138 6266 338.59427 6266 397.4043 C 6266 453.03539 6252.6024 502.30918 6225.8086 545.22461 C 6199.2418 587.91296 6156.0992 609.25781 6096.3809 609.25781 C 6033.4837 609.25781 5987.957 590.29693 5959.8008 552.37695 C 5931.8718 514.2299 5917.9082 467.4548 5917.9082 412.05078 C 5917.9082 342.79573 5934.2557 290.45741 5966.9531 255.03516 C 5999.6506 219.38584 6041.8857 201.56055 6093.6562 201.56055 z M 6635.8887 201.56055 C 6689.249 201.56055 6731.2562 219.49862 6761.9102 255.375 C 6792.7912 291.25138 6808.2324 338.59427 6808.2324 397.4043 C 6808.2324 453.03539 6794.8348 502.30918 6768.041 545.22461 C 6741.4742 587.91296 6698.3316 609.25781 6638.6133 609.25781 C 6575.7161 609.25781 6530.1894 590.29693 6502.0332 552.37695 C 6474.1043 514.2299 6460.1406 467.4548 6460.1406 412.05078 C 6460.1406 342.79573 6476.4901 290.45741 6509.1875 255.03516 C 6541.8849 219.38584 6584.1177 201.56055 6635.8887 201.56055 z M 5472.4043 211.4375 L 5593.3184 211.4375 C 5622.8367 211.4375 5645.0879 214.61677 5660.0742 220.97461 C 5686.641 232.32789 5699.9238 254.35332 5699.9238 287.05078 C 5699.9238 319.52118 5687.4361 342.00162 5662.459 354.49023 C 5646.5643 362.43754 5624.3114 366.41016 5595.7012 366.41016 L 5472.4043 366.41016 L 5472.4043 211.4375 z M 3505.4473 213.14062 L 3670.9785 213.14062 C 3694.1392 213.14063 3712.6451 216.5474 3726.4961 223.35938 C 3752.3816 236.30208 3765.3242 260.59873 3765.3242 296.24805 C 3765.3242 329.39964 3756.0159 352.33315 3737.3965 365.04883 C 3719.0042 377.76452 3693.9123 384.12109 3662.123 384.12109 L 3505.4473 384.12109 L 3505.4473 213.14062 z M 4004.7656 213.14062 L 4124.9961 213.14062 C 4179.7189 213.14062 4219.3421 230.28534 4243.8652 264.57227 C 4268.6153 298.85919 4280.9902 346.99543 4280.9902 408.98438 C 4280.9902 425.10599 4279.2887 442.59104 4275.8828 461.4375 C 4269.9792 492.99963 4260.3286 518.88489 4246.9316 539.09375 C 4230.1286 564.29803 4208.5563 581.32803 4182.2168 590.18359 C 4167.4575 594.95197 4148.6114 597.33594 4125.6777 597.33594 L 4004.7656 597.33594 L 4004.7656 213.14062 z M 4979.5586 213.14062 L 5145.0898 213.14062 C 5168.2505 213.14063 5186.7565 216.5474 5200.6074 223.35938 C 5226.4929 236.30208 5239.4355 260.59873 5239.4355 296.24805 C 5239.4355 329.39964 5230.1251 352.33315 5211.5059 365.04883 C 5193.1134 377.76452 5168.0235 384.12109 5136.2344 384.12109 L 4979.5586 384.12109 L 4979.5586 213.14062 z M 5472.4043 421.24609 L 5606.9414 421.24609 C 5635.3247 421.24609 5658.1453 424.76567 5675.4023 431.80469 C 5707.8728 444.9745 5724.1074 469.72611 5724.1074 506.05664 C 5724.1074 527.62787 5718.5441 546.01902 5707.418 561.23242 C 5689.7069 585.30139 5660.0746 597.33594 5618.5215 597.33594 L 5472.4043 597.33594 L 5472.4043 421.24609 z "
       transform="scale(0.26458333)" />
    
  </g>
</svg>
